<svg width="58" height="58" viewBox="0 0 58 58" fill="none" xmlns="http://www.w3.org/2000/svg">
<path d="M45.3809 45.3809C46.9596 45.3809 48.4736 46.008 49.5899 47.1243C50.7062 48.2406 51.3333 49.7546 51.3333 51.3333C51.3333 52.9119 50.7062 54.426 49.5899 55.5422C48.4736 56.6585 46.9596 57.2857 45.3809 57.2857C43.8022 57.2857 42.2882 56.6585 41.1719 55.5422C40.0556 54.426 39.4285 52.9119 39.4285 51.3333C39.4285 49.7546 40.0556 48.2406 41.1719 47.1243C42.2882 46.008 43.8022 45.3809 45.3809 45.3809ZM45.3809 48.3571C44.5916 48.3571 43.8346 48.6706 43.2764 49.2288C42.7183 49.7869 42.4047 50.5439 42.4047 51.3333C42.4047 52.1226 42.7183 52.8796 43.2764 53.4378C43.8346 53.9959 44.5916 54.3095 45.3809 54.3095C46.1702 54.3095 46.9272 53.9959 47.4854 53.4378C48.0435 52.8796 48.3571 52.1226 48.3571 51.3333C48.3571 50.5439 48.0435 49.7869 47.4854 49.2288C46.9272 48.6706 46.1702 48.3571 45.3809 48.3571ZM18.5952 45.3809C20.1739 45.3809 21.6879 46.008 22.8041 47.1243C23.9204 48.2406 24.5476 49.7546 24.5476 51.3333C24.5476 52.9119 23.9204 54.426 22.8041 55.5422C21.6879 56.6585 20.1739 57.2857 18.5952 57.2857C17.0165 57.2857 15.5025 56.6585 14.3862 55.5422C13.2699 54.426 12.6428 52.9119 12.6428 51.3333C12.6428 49.7546 13.2699 48.2406 14.3862 47.1243C15.5025 46.008 17.0165 45.3809 18.5952 45.3809ZM18.5952 48.3571C17.8058 48.3571 17.0488 48.6706 16.4907 49.2288C15.9326 49.7869 15.619 50.5439 15.619 51.3333C15.619 52.1226 15.9326 52.8796 16.4907 53.4378C17.0488 53.9959 17.8058 54.3095 18.5952 54.3095C19.3845 54.3095 20.1415 53.9959 20.6997 53.4378C21.2578 52.8796 21.5714 52.1226 21.5714 51.3333C21.5714 50.5439 21.2578 49.7869 20.6997 49.2288C20.1415 48.6706 19.3845 48.3571 18.5952 48.3571ZM51.3333 9.66661H10.4791L18.0595 27.5238H42.4047C42.8675 27.5245 43.324 27.4166 43.7375 27.2088C44.151 27.001 44.51 26.6991 44.7857 26.3273L53.7142 14.4226H53.7172C54.0473 13.9802 54.2478 13.4547 54.2964 12.9049C54.345 12.3551 54.2398 11.8026 53.9925 11.3091C53.7451 10.8157 53.3654 10.4008 52.8958 10.1107C52.4262 9.82064 51.8852 9.66688 51.3333 9.66661ZM42.4047 30.4999H18.1964L15.9166 35.1428L15.619 36.4523C15.619 37.2417 15.9326 37.9987 16.4907 38.5568C17.0488 39.115 17.8058 39.4285 18.5952 39.4285H51.3333V42.4047H18.5952C17.5588 42.4052 16.5402 42.1351 15.6402 41.6211C14.7403 41.1071 13.9901 40.367 13.4639 39.4741C12.9378 38.5811 12.6539 37.5663 12.6404 36.53C12.6269 35.4937 12.8842 34.4718 13.3868 33.5654L15.5297 29.1785L4.72018 3.71423H0.738037V0.738037H6.69042L9.2172 6.69042H51.3333C52.4579 6.69053 53.5595 7.00923 54.5104 7.60963C55.4614 8.21002 56.2228 9.06753 56.7065 10.0828C57.1902 11.0981 57.3763 12.2297 57.2434 13.3464C57.1104 14.4632 56.6638 15.5194 55.9553 16.3928L47.2827 27.9583C46.7344 28.7434 46.0045 29.3845 45.1552 29.827C44.306 30.2695 43.3624 30.5004 42.4047 30.4999Z" fill="#8500ED"/>
</svg>
