<svg width="123" height="82" viewBox="0 0 123 82" fill="none" xmlns="http://www.w3.org/2000/svg">
<path d="M6.83333 82H116.167C119.925 82 123 78.925 123 75.1667C123 71.4083 119.925 68.3333 116.167 68.3333H6.83333C3.075 68.3333 0 71.4083 0 75.1667C0 78.925 3.075 82 6.83333 82ZM6.83333 47.8333H116.167C119.925 47.8333 123 44.7583 123 41C123 37.2417 119.925 34.1667 116.167 34.1667H6.83333C3.075 34.1667 0 37.2417 0 41C0 44.7583 3.075 47.8333 6.83333 47.8333ZM0 6.83333C0 10.5917 3.075 13.6667 6.83333 13.6667H116.167C119.925 13.6667 123 10.5917 123 6.83333C123 3.075 119.925 0 116.167 0H6.83333C3.075 0 0 3.075 0 6.83333Z" fill="#AD5AC1"/>
</svg>
